<svg xmlns="http://www.w3.org/2000/svg" viewBox="0 0 28.68 28.68">
  <path fill="#fbba30" d="M27.69,14.75c0-1.2-.97-2.17-2.17-2.17s-2.17.97-2.17,2.17h0c0,2.41-.94,4.67-2.64,6.37-1.7,1.7-3.96,2.64-6.37,2.64h0c-2.41,0-4.67-.94-6.37-2.64-1.7-1.7-2.64-3.96-2.64-6.37H1c0,7.37,5.97,13.34,13.34,13.34s13.34-5.97,13.34-13.34Z"/>
  <path fill="#004b62" d="M12.18,14.34c0,1.2.97,2.17,2.17,2.17s2.17-.97,2.17-2.17h0c0-2.41.94-4.67,2.64-6.37,1.7-1.7,3.96-2.64,6.37-2.64h0c2.41,0,4.67.94,6.37,2.64,1.7,1.7,2.64,3.96,2.64,6.37h4.33c0-7.37-5.97-13.34-13.34-13.34s-13.34,5.97-13.34,13.34Z"/>
</svg>
